<mxfile host="app.diagrams.net" modified="2022-06-12T10:17:36.190Z" agent="5.0 (Macintosh; Intel Mac OS X 10_15_7) AppleWebKit/605.1.15 (KHTML, like Gecko) Version/15.5 Safari/605.1.15" etag="1p9h1E-L9Sl0Ipp2X0ak" version="20.0.0" type="github" pages="2">
  <diagram id="kb5ggptceWDiAB8Re5l4" name="Page-1">
    <mxGraphModel dx="1880" dy="1789" grid="1" gridSize="10" guides="1" tooltips="1" connect="1" arrows="1" fold="1" page="1" pageScale="1" pageWidth="827" pageHeight="1169" math="0" shadow="0">
      <root>
        <mxCell id="0" />
        <mxCell id="1" parent="0" />
        <mxCell id="bxc62FPtWCXMQF45DqbI-1" value="User" style="rounded=0;whiteSpace=wrap;html=1;" parent="1" vertex="1">
          <mxGeometry x="230" y="160" width="120" height="60" as="geometry" />
        </mxCell>
        <mxCell id="bxc62FPtWCXMQF45DqbI-2" value="BICICLETA" style="rounded=0;whiteSpace=wrap;html=1;" parent="1" vertex="1">
          <mxGeometry x="440" y="80" width="120" height="60" as="geometry" />
        </mxCell>
        <mxCell id="bxc62FPtWCXMQF45DqbI-3" value="MOTO" style="rounded=0;whiteSpace=wrap;html=1;" parent="1" vertex="1">
          <mxGeometry x="440" y="230" width="120" height="60" as="geometry" />
        </mxCell>
        <mxCell id="bxc62FPtWCXMQF45DqbI-4" value="LOG&lt;br&gt;" style="rounded=0;whiteSpace=wrap;html=1;" parent="1" vertex="1">
          <mxGeometry x="10" y="160" width="120" height="60" as="geometry" />
        </mxCell>
        <mxCell id="bxc62FPtWCXMQF45DqbI-5" value="RUTAS" style="rounded=0;whiteSpace=wrap;html=1;" parent="1" vertex="1">
          <mxGeometry x="220" y="600" width="120" height="60" as="geometry" />
        </mxCell>
        <mxCell id="bxc62FPtWCXMQF45DqbI-6" value="tiene" style="rhombus;whiteSpace=wrap;html=1;" parent="1" vertex="1">
          <mxGeometry x="160" y="170" width="50" height="50" as="geometry" />
        </mxCell>
        <mxCell id="bxc62FPtWCXMQF45DqbI-7" value="" style="endArrow=none;html=1;rounded=0;exitX=0.996;exitY=0.58;exitDx=0;exitDy=0;entryX=0;entryY=0.5;entryDx=0;entryDy=0;exitPerimeter=0;" parent="1" source="bxc62FPtWCXMQF45DqbI-4" target="bxc62FPtWCXMQF45DqbI-6" edge="1">
          <mxGeometry width="50" height="50" relative="1" as="geometry">
            <mxPoint x="430" y="300" as="sourcePoint" />
            <mxPoint x="480" y="250" as="targetPoint" />
          </mxGeometry>
        </mxCell>
        <mxCell id="bxc62FPtWCXMQF45DqbI-8" value="" style="endArrow=none;html=1;rounded=0;exitX=1;exitY=0.5;exitDx=0;exitDy=0;entryX=-0.001;entryY=0.587;entryDx=0;entryDy=0;entryPerimeter=0;" parent="1" source="bxc62FPtWCXMQF45DqbI-6" target="bxc62FPtWCXMQF45DqbI-1" edge="1">
          <mxGeometry width="50" height="50" relative="1" as="geometry">
            <mxPoint x="139.51999999999995" y="204.8" as="sourcePoint" />
            <mxPoint x="170" y="205" as="targetPoint" />
          </mxGeometry>
        </mxCell>
        <mxCell id="bxc62FPtWCXMQF45DqbI-9" value="1:1" style="text;html=1;align=center;verticalAlign=middle;resizable=0;points=[];autosize=1;strokeColor=none;fillColor=none;" parent="1" vertex="1">
          <mxGeometry x="170" y="220" width="30" height="20" as="geometry" />
        </mxCell>
        <mxCell id="bxc62FPtWCXMQF45DqbI-11" value="tiene" style="rhombus;whiteSpace=wrap;html=1;" parent="1" vertex="1">
          <mxGeometry x="360" y="105" width="30" height="30" as="geometry" />
        </mxCell>
        <mxCell id="bxc62FPtWCXMQF45DqbI-12" value="tiene" style="rhombus;whiteSpace=wrap;html=1;" parent="1" vertex="1">
          <mxGeometry x="360" y="245" width="30" height="30" as="geometry" />
        </mxCell>
        <mxCell id="bxc62FPtWCXMQF45DqbI-13" value="" style="endArrow=none;html=1;rounded=0;exitX=1;exitY=0;exitDx=0;exitDy=0;" parent="1" source="bxc62FPtWCXMQF45DqbI-1" edge="1">
          <mxGeometry width="50" height="50" relative="1" as="geometry">
            <mxPoint x="360" y="170" as="sourcePoint" />
            <mxPoint x="350" y="120" as="targetPoint" />
          </mxGeometry>
        </mxCell>
        <mxCell id="bxc62FPtWCXMQF45DqbI-14" value="" style="endArrow=none;html=1;rounded=0;" parent="1" edge="1">
          <mxGeometry width="50" height="50" relative="1" as="geometry">
            <mxPoint x="350" y="120" as="sourcePoint" />
            <mxPoint x="360" y="120" as="targetPoint" />
          </mxGeometry>
        </mxCell>
        <mxCell id="bxc62FPtWCXMQF45DqbI-15" value="" style="endArrow=none;html=1;rounded=0;entryX=0;entryY=0.667;entryDx=0;entryDy=0;entryPerimeter=0;" parent="1" target="bxc62FPtWCXMQF45DqbI-2" edge="1">
          <mxGeometry width="50" height="50" relative="1" as="geometry">
            <mxPoint x="390" y="119.89999999999998" as="sourcePoint" />
            <mxPoint x="430" y="119.89999999999998" as="targetPoint" />
          </mxGeometry>
        </mxCell>
        <mxCell id="bxc62FPtWCXMQF45DqbI-16" value="" style="endArrow=none;html=1;rounded=0;entryX=0;entryY=0.667;entryDx=0;entryDy=0;entryPerimeter=0;exitX=1;exitY=0.5;exitDx=0;exitDy=0;" parent="1" source="bxc62FPtWCXMQF45DqbI-12" edge="1">
          <mxGeometry width="50" height="50" relative="1" as="geometry">
            <mxPoint x="400" y="260" as="sourcePoint" />
            <mxPoint x="440" y="260.02" as="targetPoint" />
          </mxGeometry>
        </mxCell>
        <mxCell id="bxc62FPtWCXMQF45DqbI-18" value="" style="endArrow=none;html=1;rounded=0;exitX=1;exitY=1;exitDx=0;exitDy=0;" parent="1" source="bxc62FPtWCXMQF45DqbI-1" edge="1">
          <mxGeometry width="50" height="50" relative="1" as="geometry">
            <mxPoint x="405" y="270" as="sourcePoint" />
            <mxPoint x="350" y="260" as="targetPoint" />
          </mxGeometry>
        </mxCell>
        <mxCell id="bxc62FPtWCXMQF45DqbI-19" value="" style="endArrow=none;html=1;rounded=0;exitX=0;exitY=0.5;exitDx=0;exitDy=0;" parent="1" source="bxc62FPtWCXMQF45DqbI-12" edge="1">
          <mxGeometry width="50" height="50" relative="1" as="geometry">
            <mxPoint x="330" y="230" as="sourcePoint" />
            <mxPoint x="350" y="260" as="targetPoint" />
          </mxGeometry>
        </mxCell>
        <mxCell id="bxc62FPtWCXMQF45DqbI-20" value="N:M" style="text;html=1;align=center;verticalAlign=middle;resizable=0;points=[];autosize=1;strokeColor=none;fillColor=none;" parent="1" vertex="1">
          <mxGeometry x="355" y="135" width="40" height="20" as="geometry" />
        </mxCell>
        <mxCell id="bxc62FPtWCXMQF45DqbI-21" value="N:M" style="text;html=1;align=center;verticalAlign=middle;resizable=0;points=[];autosize=1;strokeColor=none;fillColor=none;" parent="1" vertex="1">
          <mxGeometry x="360" y="225" width="40" height="20" as="geometry" />
        </mxCell>
        <mxCell id="bxc62FPtWCXMQF45DqbI-22" value="Hace" style="rhombus;whiteSpace=wrap;html=1;" parent="1" vertex="1">
          <mxGeometry x="255" y="450" width="50" height="50" as="geometry" />
        </mxCell>
        <mxCell id="bxc62FPtWCXMQF45DqbI-23" value="" style="endArrow=none;html=1;rounded=0;entryX=0.5;entryY=0;entryDx=0;entryDy=0;exitX=0.413;exitY=0.996;exitDx=0;exitDy=0;exitPerimeter=0;" parent="1" source="bxc62FPtWCXMQF45DqbI-1" target="bxc62FPtWCXMQF45DqbI-22" edge="1">
          <mxGeometry width="50" height="50" relative="1" as="geometry">
            <mxPoint x="75" y="400" as="sourcePoint" />
            <mxPoint x="640" y="160" as="targetPoint" />
          </mxGeometry>
        </mxCell>
        <mxCell id="bxc62FPtWCXMQF45DqbI-27" value="" style="endArrow=none;html=1;rounded=0;entryX=0.5;entryY=1;entryDx=0;entryDy=0;exitX=0.5;exitY=0;exitDx=0;exitDy=0;" parent="1" source="bxc62FPtWCXMQF45DqbI-5" target="bxc62FPtWCXMQF45DqbI-22" edge="1">
          <mxGeometry width="50" height="50" relative="1" as="geometry">
            <mxPoint x="650" y="119.86000000000001" as="sourcePoint" />
            <mxPoint x="570" y="119.86000000000001" as="targetPoint" />
          </mxGeometry>
        </mxCell>
        <mxCell id="bxc62FPtWCXMQF45DqbI-28" value="&lt;u&gt;id.autoIn&lt;/u&gt;" style="ellipse;whiteSpace=wrap;html=1;" parent="1" vertex="1">
          <mxGeometry x="-100" y="105" width="55" height="36.67" as="geometry" />
        </mxCell>
        <mxCell id="bxc62FPtWCXMQF45DqbI-30" value="password" style="ellipse;whiteSpace=wrap;html=1;" parent="1" vertex="1">
          <mxGeometry x="-120" y="171.67000000000002" width="55" height="36.67" as="geometry" />
        </mxCell>
        <mxCell id="bxc62FPtWCXMQF45DqbI-31" value="Email" style="ellipse;whiteSpace=wrap;html=1;" parent="1" vertex="1">
          <mxGeometry x="-95" y="230" width="55" height="36.67" as="geometry" />
        </mxCell>
        <mxCell id="bxc62FPtWCXMQF45DqbI-32" value="" style="endArrow=none;html=1;rounded=0;exitX=1;exitY=0.5;exitDx=0;exitDy=0;entryX=0;entryY=0;entryDx=0;entryDy=0;" parent="1" source="bxc62FPtWCXMQF45DqbI-28" target="bxc62FPtWCXMQF45DqbI-4" edge="1">
          <mxGeometry width="50" height="50" relative="1" as="geometry">
            <mxPoint x="150" y="290" as="sourcePoint" />
            <mxPoint x="200" y="240" as="targetPoint" />
          </mxGeometry>
        </mxCell>
        <mxCell id="bxc62FPtWCXMQF45DqbI-33" value="" style="endArrow=none;html=1;rounded=0;exitX=1;exitY=0.5;exitDx=0;exitDy=0;entryX=0;entryY=0.5;entryDx=0;entryDy=0;" parent="1" source="bxc62FPtWCXMQF45DqbI-30" target="bxc62FPtWCXMQF45DqbI-4" edge="1">
          <mxGeometry width="50" height="50" relative="1" as="geometry">
            <mxPoint x="-34.99999999999727" y="133.33499999999998" as="sourcePoint" />
            <mxPoint x="20" y="170" as="targetPoint" />
          </mxGeometry>
        </mxCell>
        <mxCell id="bxc62FPtWCXMQF45DqbI-34" value="" style="endArrow=none;html=1;rounded=0;exitX=1;exitY=0.5;exitDx=0;exitDy=0;entryX=0;entryY=1;entryDx=0;entryDy=0;" parent="1" source="bxc62FPtWCXMQF45DqbI-31" target="bxc62FPtWCXMQF45DqbI-4" edge="1">
          <mxGeometry width="50" height="50" relative="1" as="geometry">
            <mxPoint x="-55.00000000000091" y="200.005" as="sourcePoint" />
            <mxPoint x="20" y="200" as="targetPoint" />
          </mxGeometry>
        </mxCell>
        <mxCell id="bxc62FPtWCXMQF45DqbI-35" value="&lt;u&gt;&lt;font style=&quot;font-size: 7px;&quot;&gt;id.autoIn&lt;/font&gt;&lt;/u&gt;" style="ellipse;whiteSpace=wrap;html=1;" parent="1" vertex="1">
          <mxGeometry x="165" y="106.66" width="40" height="26.67" as="geometry" />
        </mxCell>
        <mxCell id="bxc62FPtWCXMQF45DqbI-36" value="user" style="ellipse;whiteSpace=wrap;html=1;" parent="1" vertex="1">
          <mxGeometry x="170" y="80" width="30" height="20" as="geometry" />
        </mxCell>
        <mxCell id="bxc62FPtWCXMQF45DqbI-37" value="email" style="ellipse;whiteSpace=wrap;html=1;" parent="1" vertex="1">
          <mxGeometry x="170" y="49" width="30" height="20" as="geometry" />
        </mxCell>
        <mxCell id="bxc62FPtWCXMQF45DqbI-39" value="foto" style="ellipse;whiteSpace=wrap;html=1;" parent="1" vertex="1">
          <mxGeometry x="170" y="20" width="30" height="20" as="geometry" />
        </mxCell>
        <mxCell id="bxc62FPtWCXMQF45DqbI-40" value="pass" style="ellipse;whiteSpace=wrap;html=1;" parent="1" vertex="1">
          <mxGeometry x="169.5" y="-10" width="30" height="20" as="geometry" />
        </mxCell>
        <mxCell id="bxc62FPtWCXMQF45DqbI-41" value="about" style="ellipse;whiteSpace=wrap;html=1;" parent="1" vertex="1">
          <mxGeometry x="165" y="-41" width="34.5" height="23" as="geometry" />
        </mxCell>
        <mxCell id="bxc62FPtWCXMQF45DqbI-42" value="" style="endArrow=none;html=1;rounded=0;fontSize=7;exitX=1;exitY=0.5;exitDx=0;exitDy=0;" parent="1" source="bxc62FPtWCXMQF45DqbI-35" edge="1">
          <mxGeometry width="50" height="50" relative="1" as="geometry">
            <mxPoint x="140" y="110" as="sourcePoint" />
            <mxPoint x="210" y="120" as="targetPoint" />
          </mxGeometry>
        </mxCell>
        <mxCell id="bxc62FPtWCXMQF45DqbI-43" value="" style="endArrow=none;html=1;rounded=0;fontSize=7;" parent="1" edge="1">
          <mxGeometry width="50" height="50" relative="1" as="geometry">
            <mxPoint x="210" y="120" as="sourcePoint" />
            <mxPoint x="210" y="160" as="targetPoint" />
          </mxGeometry>
        </mxCell>
        <mxCell id="bxc62FPtWCXMQF45DqbI-44" value="" style="endArrow=none;html=1;rounded=0;fontSize=7;entryX=0;entryY=0;entryDx=0;entryDy=0;" parent="1" target="bxc62FPtWCXMQF45DqbI-1" edge="1">
          <mxGeometry width="50" height="50" relative="1" as="geometry">
            <mxPoint x="210" y="160" as="sourcePoint" />
            <mxPoint x="220" y="130" as="targetPoint" />
          </mxGeometry>
        </mxCell>
        <mxCell id="bxc62FPtWCXMQF45DqbI-45" value="" style="endArrow=none;html=1;rounded=0;fontSize=7;exitX=1;exitY=0.5;exitDx=0;exitDy=0;" parent="1" source="bxc62FPtWCXMQF45DqbI-36" edge="1">
          <mxGeometry width="50" height="50" relative="1" as="geometry">
            <mxPoint x="225.000000000005" y="139.99500000000012" as="sourcePoint" />
            <mxPoint x="230" y="90" as="targetPoint" />
          </mxGeometry>
        </mxCell>
        <mxCell id="bxc62FPtWCXMQF45DqbI-46" value="" style="endArrow=none;html=1;rounded=0;fontSize=7;entryX=0.001;entryY=0.017;entryDx=0;entryDy=0;entryPerimeter=0;" parent="1" target="bxc62FPtWCXMQF45DqbI-1" edge="1">
          <mxGeometry width="50" height="50" relative="1" as="geometry">
            <mxPoint x="230" y="90" as="sourcePoint" />
            <mxPoint x="240.00000000000023" y="100" as="targetPoint" />
          </mxGeometry>
        </mxCell>
        <mxCell id="bxc62FPtWCXMQF45DqbI-47" value="" style="endArrow=none;html=1;rounded=0;fontSize=7;exitX=1.039;exitY=0.52;exitDx=0;exitDy=0;exitPerimeter=0;" parent="1" source="bxc62FPtWCXMQF45DqbI-37" edge="1">
          <mxGeometry width="50" height="50" relative="1" as="geometry">
            <mxPoint x="210.00000000000114" y="100" as="sourcePoint" />
            <mxPoint x="240" y="60" as="targetPoint" />
          </mxGeometry>
        </mxCell>
        <mxCell id="bxc62FPtWCXMQF45DqbI-48" value="" style="endArrow=none;html=1;rounded=0;fontSize=7;entryX=0.083;entryY=0;entryDx=0;entryDy=0;entryPerimeter=0;" parent="1" target="bxc62FPtWCXMQF45DqbI-1" edge="1">
          <mxGeometry width="50" height="50" relative="1" as="geometry">
            <mxPoint x="240" y="60" as="sourcePoint" />
            <mxPoint x="240" y="130" as="targetPoint" />
          </mxGeometry>
        </mxCell>
        <mxCell id="bxc62FPtWCXMQF45DqbI-49" value="" style="endArrow=none;html=1;rounded=0;fontSize=7;exitX=1;exitY=0.5;exitDx=0;exitDy=0;" parent="1" source="bxc62FPtWCXMQF45DqbI-39" edge="1">
          <mxGeometry width="50" height="50" relative="1" as="geometry">
            <mxPoint x="211.17000000000007" y="69.40000000000009" as="sourcePoint" />
            <mxPoint x="250" y="30" as="targetPoint" />
          </mxGeometry>
        </mxCell>
        <mxCell id="bxc62FPtWCXMQF45DqbI-50" value="" style="endArrow=none;html=1;rounded=0;fontSize=7;entryX=0.167;entryY=0;entryDx=0;entryDy=0;entryPerimeter=0;" parent="1" target="bxc62FPtWCXMQF45DqbI-1" edge="1">
          <mxGeometry width="50" height="50" relative="1" as="geometry">
            <mxPoint x="250" y="30" as="sourcePoint" />
            <mxPoint x="250" y="110" as="targetPoint" />
          </mxGeometry>
        </mxCell>
        <mxCell id="bxc62FPtWCXMQF45DqbI-51" value="" style="endArrow=none;html=1;rounded=0;fontSize=7;" parent="1" edge="1">
          <mxGeometry width="50" height="50" relative="1" as="geometry">
            <mxPoint x="200" as="sourcePoint" />
            <mxPoint x="260" as="targetPoint" />
          </mxGeometry>
        </mxCell>
        <mxCell id="bxc62FPtWCXMQF45DqbI-52" value="" style="endArrow=none;html=1;rounded=0;fontSize=7;entryX=0.25;entryY=0;entryDx=0;entryDy=0;" parent="1" target="bxc62FPtWCXMQF45DqbI-1" edge="1">
          <mxGeometry width="50" height="50" relative="1" as="geometry">
            <mxPoint x="260" as="sourcePoint" />
            <mxPoint x="260" y="130" as="targetPoint" />
          </mxGeometry>
        </mxCell>
        <mxCell id="bxc62FPtWCXMQF45DqbI-53" value="" style="endArrow=none;html=1;rounded=0;fontSize=7;exitX=1;exitY=0.5;exitDx=0;exitDy=0;" parent="1" source="bxc62FPtWCXMQF45DqbI-41" edge="1">
          <mxGeometry width="50" height="50" relative="1" as="geometry">
            <mxPoint x="210.00000000000023" y="10" as="sourcePoint" />
            <mxPoint x="270" y="-30" as="targetPoint" />
          </mxGeometry>
        </mxCell>
        <mxCell id="bxc62FPtWCXMQF45DqbI-54" value="" style="endArrow=none;html=1;rounded=0;fontSize=7;entryX=0.331;entryY=0.013;entryDx=0;entryDy=0;entryPerimeter=0;" parent="1" target="bxc62FPtWCXMQF45DqbI-1" edge="1">
          <mxGeometry width="50" height="50" relative="1" as="geometry">
            <mxPoint x="270" y="-30" as="sourcePoint" />
            <mxPoint x="280.0000000000002" y="-20" as="targetPoint" />
          </mxGeometry>
        </mxCell>
        <mxCell id="bxc62FPtWCXMQF45DqbI-55" value="&lt;span style=&quot;font-size: 7px;&quot;&gt;FK.id-log&lt;/span&gt;" style="ellipse;whiteSpace=wrap;html=1;dashed=1;" parent="1" vertex="1">
          <mxGeometry x="180" y="275" width="40" height="26.67" as="geometry" />
        </mxCell>
        <mxCell id="bxc62FPtWCXMQF45DqbI-56" value="" style="endArrow=none;html=1;rounded=0;fontSize=7;exitX=1;exitY=0.562;exitDx=0;exitDy=0;exitPerimeter=0;" parent="1" source="bxc62FPtWCXMQF45DqbI-55" edge="1">
          <mxGeometry width="50" height="50" relative="1" as="geometry">
            <mxPoint x="240" y="380" as="sourcePoint" />
            <mxPoint x="230" y="290" as="targetPoint" />
          </mxGeometry>
        </mxCell>
        <mxCell id="bxc62FPtWCXMQF45DqbI-57" value="" style="endArrow=none;html=1;rounded=0;fontSize=7;entryX=0;entryY=1;entryDx=0;entryDy=0;" parent="1" target="bxc62FPtWCXMQF45DqbI-1" edge="1">
          <mxGeometry width="50" height="50" relative="1" as="geometry">
            <mxPoint x="230" y="290" as="sourcePoint" />
            <mxPoint x="230" y="230" as="targetPoint" />
          </mxGeometry>
        </mxCell>
        <mxCell id="bxc62FPtWCXMQF45DqbI-58" value="&lt;u&gt;&lt;font style=&quot;font-size: 7px;&quot;&gt;id.autoIn&lt;/font&gt;&lt;/u&gt;" style="ellipse;whiteSpace=wrap;html=1;" parent="1" vertex="1">
          <mxGeometry x="310" y="67" width="40" height="26.67" as="geometry" />
        </mxCell>
        <mxCell id="bxc62FPtWCXMQF45DqbI-60" value="&lt;span style=&quot;font-size: 7px;&quot;&gt;Fk.id-user&lt;/span&gt;" style="ellipse;whiteSpace=wrap;html=1;dashed=1;" parent="1" vertex="1">
          <mxGeometry x="310" y="27" width="40" height="26.67" as="geometry" />
        </mxCell>
        <mxCell id="bxc62FPtWCXMQF45DqbI-61" value="&lt;span style=&quot;font-size: 7px;&quot;&gt;Fk.id-Bici&lt;/span&gt;" style="ellipse;whiteSpace=wrap;html=1;dashed=1;" parent="1" vertex="1">
          <mxGeometry x="310" y="-3.6700000000000017" width="40" height="26.67" as="geometry" />
        </mxCell>
        <mxCell id="bxc62FPtWCXMQF45DqbI-62" value="" style="endArrow=none;html=1;rounded=0;fontSize=7;" parent="1" edge="1">
          <mxGeometry width="50" height="50" relative="1" as="geometry">
            <mxPoint x="350" y="80" as="sourcePoint" />
            <mxPoint x="360" y="80" as="targetPoint" />
          </mxGeometry>
        </mxCell>
        <mxCell id="bxc62FPtWCXMQF45DqbI-63" value="" style="endArrow=none;html=1;rounded=0;fontSize=7;" parent="1" edge="1">
          <mxGeometry width="50" height="50" relative="1" as="geometry">
            <mxPoint x="360" y="80" as="sourcePoint" />
            <mxPoint x="360" y="120" as="targetPoint" />
          </mxGeometry>
        </mxCell>
        <mxCell id="bxc62FPtWCXMQF45DqbI-64" value="" style="endArrow=none;html=1;rounded=0;fontSize=7;" parent="1" edge="1">
          <mxGeometry width="50" height="50" relative="1" as="geometry">
            <mxPoint x="350" y="40" as="sourcePoint" />
            <mxPoint x="370" y="40" as="targetPoint" />
          </mxGeometry>
        </mxCell>
        <mxCell id="bxc62FPtWCXMQF45DqbI-65" value="" style="endArrow=none;html=1;rounded=0;fontSize=7;entryX=0.333;entryY=0.167;entryDx=0;entryDy=0;entryPerimeter=0;" parent="1" target="bxc62FPtWCXMQF45DqbI-11" edge="1">
          <mxGeometry width="50" height="50" relative="1" as="geometry">
            <mxPoint x="370" y="40" as="sourcePoint" />
            <mxPoint x="370" y="80" as="targetPoint" />
          </mxGeometry>
        </mxCell>
        <mxCell id="bxc62FPtWCXMQF45DqbI-66" value="" style="endArrow=none;html=1;rounded=0;fontSize=7;exitX=1;exitY=0.5;exitDx=0;exitDy=0;" parent="1" source="bxc62FPtWCXMQF45DqbI-61" edge="1">
          <mxGeometry width="50" height="50" relative="1" as="geometry">
            <mxPoint x="360" y="50" as="sourcePoint" />
            <mxPoint x="380" y="10" as="targetPoint" />
          </mxGeometry>
        </mxCell>
        <mxCell id="bxc62FPtWCXMQF45DqbI-67" value="" style="endArrow=none;html=1;rounded=0;fontSize=7;entryX=0.669;entryY=0.176;entryDx=0;entryDy=0;entryPerimeter=0;" parent="1" target="bxc62FPtWCXMQF45DqbI-11" edge="1">
          <mxGeometry width="50" height="50" relative="1" as="geometry">
            <mxPoint x="380" y="10" as="sourcePoint" />
            <mxPoint x="380" y="40" as="targetPoint" />
          </mxGeometry>
        </mxCell>
        <mxCell id="bxc62FPtWCXMQF45DqbI-68" value="&lt;u&gt;&lt;font style=&quot;font-size: 7px;&quot;&gt;id.autoIn&lt;/font&gt;&lt;/u&gt;" style="ellipse;whiteSpace=wrap;html=1;" parent="1" vertex="1">
          <mxGeometry x="310" y="295.99999999999994" width="40" height="26.67" as="geometry" />
        </mxCell>
        <mxCell id="bxc62FPtWCXMQF45DqbI-69" value="&lt;span style=&quot;font-size: 7px;&quot;&gt;Fk.id-user&lt;/span&gt;" style="ellipse;whiteSpace=wrap;html=1;dashed=1;" parent="1" vertex="1">
          <mxGeometry x="310" y="326.34" width="40" height="26.67" as="geometry" />
        </mxCell>
        <mxCell id="bxc62FPtWCXMQF45DqbI-70" value="&lt;span style=&quot;font-size: 7px;&quot;&gt;Fk.id-Moto&lt;br&gt;&lt;/span&gt;" style="ellipse;whiteSpace=wrap;html=1;dashed=1;" parent="1" vertex="1">
          <mxGeometry x="310" y="356.99999999999994" width="40" height="26.67" as="geometry" />
        </mxCell>
        <mxCell id="bxc62FPtWCXMQF45DqbI-72" value="" style="endArrow=none;html=1;rounded=0;fontSize=7;exitX=1.002;exitY=0.524;exitDx=0;exitDy=0;exitPerimeter=0;" parent="1" source="bxc62FPtWCXMQF45DqbI-68" edge="1">
          <mxGeometry width="50" height="50" relative="1" as="geometry">
            <mxPoint x="310" y="320" as="sourcePoint" />
            <mxPoint x="360" y="310" as="targetPoint" />
          </mxGeometry>
        </mxCell>
        <mxCell id="bxc62FPtWCXMQF45DqbI-73" value="" style="endArrow=none;html=1;rounded=0;fontSize=7;" parent="1" edge="1">
          <mxGeometry width="50" height="50" relative="1" as="geometry">
            <mxPoint x="360" y="310" as="sourcePoint" />
            <mxPoint x="360" y="259.7818181818182" as="targetPoint" />
          </mxGeometry>
        </mxCell>
        <mxCell id="bxc62FPtWCXMQF45DqbI-74" value="" style="endArrow=none;html=1;rounded=0;fontSize=7;exitX=1.003;exitY=0.512;exitDx=0;exitDy=0;exitPerimeter=0;" parent="1" source="bxc62FPtWCXMQF45DqbI-69" edge="1">
          <mxGeometry width="50" height="50" relative="1" as="geometry">
            <mxPoint x="359.99999999999994" y="329.99508000000014" as="sourcePoint" />
            <mxPoint x="370" y="340" as="targetPoint" />
          </mxGeometry>
        </mxCell>
        <mxCell id="bxc62FPtWCXMQF45DqbI-75" value="" style="endArrow=none;html=1;rounded=0;fontSize=7;entryX=0.332;entryY=0.832;entryDx=0;entryDy=0;entryPerimeter=0;" parent="1" target="bxc62FPtWCXMQF45DqbI-12" edge="1">
          <mxGeometry width="50" height="50" relative="1" as="geometry">
            <mxPoint x="370" y="340" as="sourcePoint" />
            <mxPoint x="380" y="350" as="targetPoint" />
          </mxGeometry>
        </mxCell>
        <mxCell id="bxc62FPtWCXMQF45DqbI-76" value="" style="endArrow=none;html=1;rounded=0;fontSize=7;exitX=1;exitY=0.487;exitDx=0;exitDy=0;exitPerimeter=0;" parent="1" source="bxc62FPtWCXMQF45DqbI-70" edge="1">
          <mxGeometry width="50" height="50" relative="1" as="geometry">
            <mxPoint x="360.1200000000001" y="349.9950399999998" as="sourcePoint" />
            <mxPoint x="380" y="370" as="targetPoint" />
          </mxGeometry>
        </mxCell>
        <mxCell id="bxc62FPtWCXMQF45DqbI-77" value="" style="endArrow=none;html=1;rounded=0;fontSize=7;entryX=0.646;entryY=0.87;entryDx=0;entryDy=0;entryPerimeter=0;" parent="1" target="bxc62FPtWCXMQF45DqbI-12" edge="1">
          <mxGeometry width="50" height="50" relative="1" as="geometry">
            <mxPoint x="380" y="370" as="sourcePoint" />
            <mxPoint x="380" y="350" as="targetPoint" />
          </mxGeometry>
        </mxCell>
        <mxCell id="bxc62FPtWCXMQF45DqbI-78" value="&lt;u&gt;&lt;font style=&quot;font-size: 7px;&quot;&gt;id.autoIn&lt;/font&gt;&lt;/u&gt;" style="ellipse;whiteSpace=wrap;html=1;" parent="1" vertex="1">
          <mxGeometry x="430" y="27" width="40" height="26.67" as="geometry" />
        </mxCell>
        <mxCell id="bxc62FPtWCXMQF45DqbI-79" value="&lt;span style=&quot;font-size: 7px;&quot;&gt;modelo&lt;/span&gt;" style="ellipse;whiteSpace=wrap;html=1;" parent="1" vertex="1">
          <mxGeometry x="430" y="-3.6700000000000017" width="40" height="26.67" as="geometry" />
        </mxCell>
        <mxCell id="bxc62FPtWCXMQF45DqbI-80" value="ubica" style="ellipse;whiteSpace=wrap;html=1;" parent="1" vertex="1">
          <mxGeometry x="165" y="-72" width="34.5" height="23" as="geometry" />
        </mxCell>
        <mxCell id="bxc62FPtWCXMQF45DqbI-81" value="" style="endArrow=none;html=1;rounded=0;fontSize=7;exitX=1;exitY=0.5;exitDx=0;exitDy=0;" parent="1" source="bxc62FPtWCXMQF45DqbI-80" edge="1">
          <mxGeometry width="50" height="50" relative="1" as="geometry">
            <mxPoint x="209.50000000000068" y="-19.499999999999773" as="sourcePoint" />
            <mxPoint x="280" y="-60" as="targetPoint" />
          </mxGeometry>
        </mxCell>
        <mxCell id="bxc62FPtWCXMQF45DqbI-82" value="" style="endArrow=none;html=1;rounded=0;fontSize=7;entryX=0.413;entryY=0.002;entryDx=0;entryDy=0;entryPerimeter=0;" parent="1" target="bxc62FPtWCXMQF45DqbI-1" edge="1">
          <mxGeometry width="50" height="50" relative="1" as="geometry">
            <mxPoint x="280" y="-60" as="sourcePoint" />
            <mxPoint x="280" y="100" as="targetPoint" />
          </mxGeometry>
        </mxCell>
        <mxCell id="bxc62FPtWCXMQF45DqbI-83" value="" style="endArrow=none;html=1;rounded=0;fontSize=7;exitX=0.998;exitY=0.487;exitDx=0;exitDy=0;exitPerimeter=0;" parent="1" source="bxc62FPtWCXMQF45DqbI-78" edge="1">
          <mxGeometry width="50" height="50" relative="1" as="geometry">
            <mxPoint x="360" y="90" as="sourcePoint" />
            <mxPoint x="480" y="40" as="targetPoint" />
          </mxGeometry>
        </mxCell>
        <mxCell id="bxc62FPtWCXMQF45DqbI-84" value="" style="endArrow=none;html=1;rounded=0;fontSize=7;entryX=0.333;entryY=-0.007;entryDx=0;entryDy=0;entryPerimeter=0;" parent="1" target="bxc62FPtWCXMQF45DqbI-2" edge="1">
          <mxGeometry width="50" height="50" relative="1" as="geometry">
            <mxPoint x="480" y="40" as="sourcePoint" />
            <mxPoint x="490" y="50" as="targetPoint" />
          </mxGeometry>
        </mxCell>
        <mxCell id="bxc62FPtWCXMQF45DqbI-85" value="" style="endArrow=none;html=1;rounded=0;fontSize=7;exitX=1;exitY=0.5;exitDx=0;exitDy=0;" parent="1" source="bxc62FPtWCXMQF45DqbI-79" edge="1">
          <mxGeometry width="50" height="50" relative="1" as="geometry">
            <mxPoint x="479.91999999999985" y="49.988290000000234" as="sourcePoint" />
            <mxPoint x="490" y="10" as="targetPoint" />
          </mxGeometry>
        </mxCell>
        <mxCell id="bxc62FPtWCXMQF45DqbI-86" value="" style="endArrow=none;html=1;rounded=0;fontSize=7;entryX=0.419;entryY=0.003;entryDx=0;entryDy=0;entryPerimeter=0;" parent="1" target="bxc62FPtWCXMQF45DqbI-2" edge="1">
          <mxGeometry width="50" height="50" relative="1" as="geometry">
            <mxPoint x="490" y="10" as="sourcePoint" />
            <mxPoint x="490" y="50" as="targetPoint" />
          </mxGeometry>
        </mxCell>
        <mxCell id="bxc62FPtWCXMQF45DqbI-87" value="&lt;span style=&quot;font-size: 7px;&quot;&gt;modelo&lt;/span&gt;" style="ellipse;whiteSpace=wrap;html=1;" parent="1" vertex="1">
          <mxGeometry x="440" y="337.67" width="40" height="26.67" as="geometry" />
        </mxCell>
        <mxCell id="bxc62FPtWCXMQF45DqbI-88" value="&lt;u&gt;&lt;font style=&quot;font-size: 7px;&quot;&gt;id.autoIn&lt;/font&gt;&lt;/u&gt;" style="ellipse;whiteSpace=wrap;html=1;" parent="1" vertex="1">
          <mxGeometry x="440" y="307" width="40" height="26.67" as="geometry" />
        </mxCell>
        <mxCell id="bxc62FPtWCXMQF45DqbI-90" value="" style="endArrow=none;html=1;rounded=0;fontSize=7;exitX=0.988;exitY=0.48;exitDx=0;exitDy=0;exitPerimeter=0;" parent="1" source="bxc62FPtWCXMQF45DqbI-88" edge="1">
          <mxGeometry width="50" height="50" relative="1" as="geometry">
            <mxPoint x="460" y="350" as="sourcePoint" />
            <mxPoint x="490" y="320" as="targetPoint" />
          </mxGeometry>
        </mxCell>
        <mxCell id="bxc62FPtWCXMQF45DqbI-91" value="" style="endArrow=none;html=1;rounded=0;fontSize=7;entryX=0.416;entryY=1.004;entryDx=0;entryDy=0;entryPerimeter=0;" parent="1" target="bxc62FPtWCXMQF45DqbI-3" edge="1">
          <mxGeometry width="50" height="50" relative="1" as="geometry">
            <mxPoint x="490" y="320" as="sourcePoint" />
            <mxPoint x="480" y="300" as="targetPoint" />
          </mxGeometry>
        </mxCell>
        <mxCell id="bxc62FPtWCXMQF45DqbI-92" value="" style="endArrow=none;html=1;rounded=0;fontSize=7;exitX=1;exitY=0.462;exitDx=0;exitDy=0;exitPerimeter=0;" parent="1" source="bxc62FPtWCXMQF45DqbI-87" edge="1">
          <mxGeometry width="50" height="50" relative="1" as="geometry">
            <mxPoint x="489.52" y="329.8015999999998" as="sourcePoint" />
            <mxPoint x="500" y="350" as="targetPoint" />
          </mxGeometry>
        </mxCell>
        <mxCell id="bxc62FPtWCXMQF45DqbI-93" value="" style="endArrow=none;html=1;rounded=0;fontSize=7;entryX=0.5;entryY=1;entryDx=0;entryDy=0;" parent="1" target="bxc62FPtWCXMQF45DqbI-3" edge="1">
          <mxGeometry width="50" height="50" relative="1" as="geometry">
            <mxPoint x="500" y="350" as="sourcePoint" />
            <mxPoint x="500" y="310" as="targetPoint" />
          </mxGeometry>
        </mxCell>
        <mxCell id="bxc62FPtWCXMQF45DqbI-95" value="&lt;u&gt;&lt;font style=&quot;font-size: 7px;&quot;&gt;id.autoIn&lt;/font&gt;&lt;/u&gt;" style="ellipse;whiteSpace=wrap;html=1;" parent="1" vertex="1">
          <mxGeometry x="230" y="706" width="40" height="26.67" as="geometry" />
        </mxCell>
        <mxCell id="bxc62FPtWCXMQF45DqbI-96" value="&lt;u&gt;&lt;font style=&quot;font-size: 7px;&quot;&gt;id.autoIn&lt;/font&gt;&lt;/u&gt;" style="ellipse;whiteSpace=wrap;html=1;" parent="1" vertex="1">
          <mxGeometry x="160" y="427.15999999999997" width="40" height="26.67" as="geometry" />
        </mxCell>
        <mxCell id="bxc62FPtWCXMQF45DqbI-97" value="&lt;span style=&quot;font-size: 7px;&quot;&gt;Fk.id-user&lt;/span&gt;" style="ellipse;whiteSpace=wrap;html=1;dashed=1;" parent="1" vertex="1">
          <mxGeometry x="160" y="461.5" width="40" height="26.67" as="geometry" />
        </mxCell>
        <mxCell id="bxc62FPtWCXMQF45DqbI-98" value="&lt;span style=&quot;font-size: 7px;&quot;&gt;Fk.id-Rutas&lt;br&gt;&lt;/span&gt;" style="ellipse;whiteSpace=wrap;html=1;dashed=1;" parent="1" vertex="1">
          <mxGeometry x="160" y="496.15999999999997" width="40" height="26.67" as="geometry" />
        </mxCell>
        <mxCell id="bxc62FPtWCXMQF45DqbI-99" value="" style="endArrow=none;html=1;rounded=0;fontSize=7;exitX=1;exitY=0.5;exitDx=0;exitDy=0;entryX=0;entryY=0.5;entryDx=0;entryDy=0;" parent="1" source="bxc62FPtWCXMQF45DqbI-97" target="bxc62FPtWCXMQF45DqbI-22" edge="1">
          <mxGeometry width="50" height="50" relative="1" as="geometry">
            <mxPoint x="210" y="490" as="sourcePoint" />
            <mxPoint x="260" y="440" as="targetPoint" />
          </mxGeometry>
        </mxCell>
        <mxCell id="bxc62FPtWCXMQF45DqbI-100" value="" style="endArrow=none;html=1;rounded=0;fontSize=7;exitX=1;exitY=0.5;exitDx=0;exitDy=0;" parent="1" source="bxc62FPtWCXMQF45DqbI-96" edge="1">
          <mxGeometry width="50" height="50" relative="1" as="geometry">
            <mxPoint x="200" y="444.19500000000005" as="sourcePoint" />
            <mxPoint x="260" y="440" as="targetPoint" />
          </mxGeometry>
        </mxCell>
        <mxCell id="bxc62FPtWCXMQF45DqbI-101" value="" style="endArrow=none;html=1;rounded=0;fontSize=7;entryX=0.096;entryY=0.406;entryDx=0;entryDy=0;entryPerimeter=0;" parent="1" target="bxc62FPtWCXMQF45DqbI-22" edge="1">
          <mxGeometry width="50" height="50" relative="1" as="geometry">
            <mxPoint x="260" y="440" as="sourcePoint" />
            <mxPoint x="270" y="454" as="targetPoint" />
          </mxGeometry>
        </mxCell>
        <mxCell id="bxc62FPtWCXMQF45DqbI-102" value="" style="endArrow=none;html=1;rounded=0;fontSize=7;exitX=1;exitY=0.5;exitDx=0;exitDy=0;" parent="1" source="bxc62FPtWCXMQF45DqbI-98" edge="1">
          <mxGeometry width="50" height="50" relative="1" as="geometry">
            <mxPoint x="210.00000000000705" y="450.4949999999999" as="sourcePoint" />
            <mxPoint x="260" y="510" as="targetPoint" />
          </mxGeometry>
        </mxCell>
        <mxCell id="bxc62FPtWCXMQF45DqbI-103" value="" style="endArrow=none;html=1;rounded=0;fontSize=7;" parent="1" edge="1">
          <mxGeometry width="50" height="50" relative="1" as="geometry">
            <mxPoint x="260" y="480" as="sourcePoint" />
            <mxPoint x="260" y="510" as="targetPoint" />
          </mxGeometry>
        </mxCell>
        <mxCell id="bxc62FPtWCXMQF45DqbI-104" value="&lt;font style=&quot;font-size: 12px;&quot;&gt;1:N&lt;/font&gt;" style="text;html=1;strokeColor=none;fillColor=none;align=center;verticalAlign=middle;whiteSpace=wrap;rounded=0;fontSize=7;" parent="1" vertex="1">
          <mxGeometry x="295" y="460" width="60" height="30" as="geometry" />
        </mxCell>
        <mxCell id="bxc62FPtWCXMQF45DqbI-105" value="&lt;span style=&quot;font-size: 7px;&quot;&gt;Nombre&lt;/span&gt;" style="ellipse;whiteSpace=wrap;html=1;" parent="1" vertex="1">
          <mxGeometry x="230" y="737" width="40" height="26.67" as="geometry" />
        </mxCell>
        <mxCell id="bxc62FPtWCXMQF45DqbI-106" value="&lt;span style=&quot;font-size: 7px;&quot;&gt;Localización&lt;/span&gt;" style="ellipse;whiteSpace=wrap;html=1;" parent="1" vertex="1">
          <mxGeometry x="220" y="769" width="50" height="41.25" as="geometry" />
        </mxCell>
        <mxCell id="bxc62FPtWCXMQF45DqbI-107" value="" style="endArrow=none;html=1;rounded=0;fontSize=12;exitX=1;exitY=0.5;exitDx=0;exitDy=0;" parent="1" source="bxc62FPtWCXMQF45DqbI-106" edge="1">
          <mxGeometry width="50" height="50" relative="1" as="geometry">
            <mxPoint x="260" y="790" as="sourcePoint" />
            <mxPoint x="300" y="790" as="targetPoint" />
          </mxGeometry>
        </mxCell>
        <mxCell id="bxc62FPtWCXMQF45DqbI-108" value="" style="endArrow=none;html=1;rounded=0;fontSize=12;exitX=1;exitY=0.5;exitDx=0;exitDy=0;" parent="1" edge="1">
          <mxGeometry width="50" height="50" relative="1" as="geometry">
            <mxPoint x="269.9999999999993" y="750.145" as="sourcePoint" />
            <mxPoint x="290" y="750" as="targetPoint" />
          </mxGeometry>
        </mxCell>
        <mxCell id="bxc62FPtWCXMQF45DqbI-109" value="" style="endArrow=none;html=1;rounded=0;fontSize=12;exitX=0.997;exitY=0.52;exitDx=0;exitDy=0;exitPerimeter=0;" parent="1" source="bxc62FPtWCXMQF45DqbI-95" edge="1">
          <mxGeometry width="50" height="50" relative="1" as="geometry">
            <mxPoint x="269.9999999999993" y="719.395" as="sourcePoint" />
            <mxPoint x="280" y="720" as="targetPoint" />
          </mxGeometry>
        </mxCell>
        <mxCell id="bxc62FPtWCXMQF45DqbI-110" value="" style="endArrow=none;html=1;rounded=0;fontSize=12;entryX=0.5;entryY=1;entryDx=0;entryDy=0;" parent="1" target="bxc62FPtWCXMQF45DqbI-5" edge="1">
          <mxGeometry width="50" height="50" relative="1" as="geometry">
            <mxPoint x="280" y="720" as="sourcePoint" />
            <mxPoint x="280" y="670" as="targetPoint" />
          </mxGeometry>
        </mxCell>
        <mxCell id="bxc62FPtWCXMQF45DqbI-111" value="" style="endArrow=none;html=1;rounded=0;fontSize=12;entryX=0.587;entryY=0.999;entryDx=0;entryDy=0;entryPerimeter=0;" parent="1" target="bxc62FPtWCXMQF45DqbI-5" edge="1">
          <mxGeometry width="50" height="50" relative="1" as="geometry">
            <mxPoint x="290" y="750" as="sourcePoint" />
            <mxPoint x="290" y="670" as="targetPoint" />
          </mxGeometry>
        </mxCell>
        <mxCell id="bxc62FPtWCXMQF45DqbI-112" value="" style="endArrow=none;html=1;rounded=0;fontSize=12;entryX=0.664;entryY=1.001;entryDx=0;entryDy=0;entryPerimeter=0;" parent="1" target="bxc62FPtWCXMQF45DqbI-5" edge="1">
          <mxGeometry width="50" height="50" relative="1" as="geometry">
            <mxPoint x="300" y="790" as="sourcePoint" />
            <mxPoint x="300.44000000000005" y="669.94" as="targetPoint" />
          </mxGeometry>
        </mxCell>
      </root>
    </mxGraphModel>
  </diagram>
  <diagram id="OSpCCmxUYRG5KXdALEfB" name="Page-2">
    <mxGraphModel dx="1053" dy="620" grid="1" gridSize="10" guides="1" tooltips="1" connect="1" arrows="1" fold="1" page="1" pageScale="1" pageWidth="827" pageHeight="1169" math="0" shadow="0">
      <root>
        <mxCell id="0" />
        <mxCell id="1" parent="0" />
        <mxCell id="THkxeWYbQWyZXvhPjeUA-1" value="BD&lt;br&gt;&lt;font color=&quot;#ff0000&quot;&gt;Crear Ruta&lt;/font&gt;" style="rounded=1;whiteSpace=wrap;html=1;" vertex="1" parent="1">
          <mxGeometry x="360" y="80" width="120" height="60" as="geometry" />
        </mxCell>
        <mxCell id="THkxeWYbQWyZXvhPjeUA-2" value="Colección&lt;br&gt;&lt;font color=&quot;#ff0000&quot;&gt;Ruta&lt;/font&gt;" style="rounded=1;whiteSpace=wrap;html=1;" vertex="1" parent="1">
          <mxGeometry x="160" y="200" width="120" height="60" as="geometry" />
        </mxCell>
        <mxCell id="THkxeWYbQWyZXvhPjeUA-3" value="Colección&lt;br&gt;&lt;font color=&quot;#ff0000&quot;&gt;&lt;span style=&quot;caret-color: rgb(255, 0, 0);&quot;&gt;User&lt;/span&gt;&lt;/font&gt;" style="rounded=1;whiteSpace=wrap;html=1;" vertex="1" parent="1">
          <mxGeometry x="560" y="200" width="120" height="60" as="geometry" />
        </mxCell>
        <mxCell id="THkxeWYbQWyZXvhPjeUA-4" value="_id" style="ellipse;whiteSpace=wrap;html=1;fontColor=#FF0000;" vertex="1" parent="1">
          <mxGeometry x="540" y="300" width="60" height="40" as="geometry" />
        </mxCell>
        <mxCell id="THkxeWYbQWyZXvhPjeUA-5" value="user_name" style="ellipse;whiteSpace=wrap;html=1;fontColor=#FF0000;" vertex="1" parent="1">
          <mxGeometry x="540" y="340" width="60" height="40" as="geometry" />
        </mxCell>
        <mxCell id="THkxeWYbQWyZXvhPjeUA-6" value="Rutas" style="swimlane;fontStyle=0;childLayout=stackLayout;horizontal=1;startSize=30;horizontalStack=0;resizeParent=1;resizeParentMax=0;resizeLast=0;collapsible=1;marginBottom=0;fontColor=#FF0000;" vertex="1" parent="1">
          <mxGeometry x="460" y="400" width="140" height="120" as="geometry" />
        </mxCell>
        <mxCell id="THkxeWYbQWyZXvhPjeUA-7" value="Ruta 1" style="text;strokeColor=none;fillColor=none;align=left;verticalAlign=middle;spacingLeft=4;spacingRight=4;overflow=hidden;points=[[0,0.5],[1,0.5]];portConstraint=eastwest;rotatable=0;fontColor=#FF0000;" vertex="1" parent="THkxeWYbQWyZXvhPjeUA-6">
          <mxGeometry y="30" width="140" height="30" as="geometry" />
        </mxCell>
        <mxCell id="THkxeWYbQWyZXvhPjeUA-8" value="Ruta 2" style="text;strokeColor=none;fillColor=none;align=left;verticalAlign=middle;spacingLeft=4;spacingRight=4;overflow=hidden;points=[[0,0.5],[1,0.5]];portConstraint=eastwest;rotatable=0;fontColor=#FF0000;" vertex="1" parent="THkxeWYbQWyZXvhPjeUA-6">
          <mxGeometry y="60" width="140" height="30" as="geometry" />
        </mxCell>
        <mxCell id="THkxeWYbQWyZXvhPjeUA-9" value="Ruta 3" style="text;strokeColor=none;fillColor=none;align=left;verticalAlign=middle;spacingLeft=4;spacingRight=4;overflow=hidden;points=[[0,0.5],[1,0.5]];portConstraint=eastwest;rotatable=0;fontColor=#FF0000;" vertex="1" parent="THkxeWYbQWyZXvhPjeUA-6">
          <mxGeometry y="90" width="140" height="30" as="geometry" />
        </mxCell>
        <mxCell id="THkxeWYbQWyZXvhPjeUA-10" value="_id" style="ellipse;whiteSpace=wrap;html=1;fontColor=#FF0000;" vertex="1" parent="1">
          <mxGeometry x="140" y="300" width="60" height="40" as="geometry" />
        </mxCell>
        <mxCell id="THkxeWYbQWyZXvhPjeUA-12" value="Rutas" style="swimlane;fontStyle=0;childLayout=stackLayout;horizontal=1;startSize=30;horizontalStack=0;resizeParent=1;resizeParentMax=0;resizeLast=0;collapsible=1;marginBottom=0;fontColor=#FF0000;" vertex="1" parent="1">
          <mxGeometry x="60" y="350" width="140" height="120" as="geometry" />
        </mxCell>
        <mxCell id="THkxeWYbQWyZXvhPjeUA-13" value="Ruta 1" style="text;strokeColor=none;fillColor=none;align=left;verticalAlign=middle;spacingLeft=4;spacingRight=4;overflow=hidden;points=[[0,0.5],[1,0.5]];portConstraint=eastwest;rotatable=0;fontColor=#FF0000;" vertex="1" parent="THkxeWYbQWyZXvhPjeUA-12">
          <mxGeometry y="30" width="140" height="30" as="geometry" />
        </mxCell>
        <mxCell id="THkxeWYbQWyZXvhPjeUA-14" value="Ruta 2" style="text;strokeColor=none;fillColor=none;align=left;verticalAlign=middle;spacingLeft=4;spacingRight=4;overflow=hidden;points=[[0,0.5],[1,0.5]];portConstraint=eastwest;rotatable=0;fontColor=#FF0000;" vertex="1" parent="THkxeWYbQWyZXvhPjeUA-12">
          <mxGeometry y="60" width="140" height="30" as="geometry" />
        </mxCell>
        <mxCell id="THkxeWYbQWyZXvhPjeUA-15" value="Ruta 3" style="text;strokeColor=none;fillColor=none;align=left;verticalAlign=middle;spacingLeft=4;spacingRight=4;overflow=hidden;points=[[0,0.5],[1,0.5]];portConstraint=eastwest;rotatable=0;fontColor=#FF0000;" vertex="1" parent="THkxeWYbQWyZXvhPjeUA-12">
          <mxGeometry y="90" width="140" height="30" as="geometry" />
        </mxCell>
      </root>
    </mxGraphModel>
  </diagram>
</mxfile>
